<svg width="227" height="46" viewBox="0 0 227 46" fill="none" xmlns="http://www.w3.org/2000/svg">
<path d="M122.3 15.9C124.4 15.9 126.4 16.3 128.3 17.1C130 17.8 131.5 18.9 132.8 20.3C134 21.7 135 23.3 135.6 25C136.9 28.7 136.9 32.7 135.6 36.4C135 38.1 134 39.7 132.8 41.1C131.5 42.5 130 43.5 128.3 44.3C124.5 45.8 120.2 45.8 116.3 44.3C114.6 43.6 113.1 42.5 111.8 41.1C110.6 39.7 109.6 38.2 109 36.4C107.7 32.7 107.7 28.7 109 25C109.6 23.3 110.6 21.7 111.8 20.3C113.1 18.9 114.6 17.9 116.3 17.1C118.2 16.3 120.2 15.9 122.3 15.9ZM122.3 19.9C120.9 19.9 119.5 20.2 118.2 20.8C117.1 21.4 116.1 22.2 115.4 23.2C114.7 24.2 114.1 25.4 113.8 26.6C113.1 29.2 113.1 31.8999 113.8 34.4999C114.1 35.6999 114.7 36.9 115.4 37.9C116.1 38.9 117.1 39.8 118.2 40.3C120.8 41.5 123.8 41.5 126.4 40.3C127.5 39.7 128.5 38.9 129.2 37.9C129.9 36.9 130.5 35.6999 130.8 34.4999C131.5 31.8999 131.5 29.2 130.8 26.6C130.5 25.4 129.9 24.2 129.2 23.2C128.5 22.2 127.5 21.4 126.4 20.8C125.1 20.2 123.7 19.9 122.3 19.9Z" fill="#303847"/>
<path d="M45.5999 17.6C42.1999 15.5 37.9 15.4 34.3 17.4C33.2 18 32.3 18.7 31.4 19.6V0H26.1V44.7H31.4V34.1C31.3 31.8 31.5 29.5 31.8 27.3C32.2 25.6 33.1999 24 34.5999 22.8C35.8999 21.6 37.6 21 39.3 21C40.6 20.9 41.8 21.3 42.9 22.1C43.9 23 44.5 24.1 44.8 25.4C45.1 27.3 45.1999 29.2 45.0999 31.2V44.6H50.4V30.2C50.4 26.5 50 23.8 49.3 22C48.5 20.2 47.2999 18.7 45.5999 17.6Z" fill="#303847"/>
<path d="M71.6 29.8C71.6 33.7 71.4 35.3 71.2 35.9C70.8 37.1 70 38.2 68.9 38.9C67.7 39.7 66.3 40.1 64.8 40.1C63.3 40.1 61.9 39.7 60.6 38.9C59.5 38.1 58.7 37 58.3 35.7C57.9 33.8 57.8 31.8 57.9 29.9V21.3H52.6V30.3C52.6 34.2 53 36.9999 53.9 38.9999C54.8 40.9999 56.2 42.6 58 43.8C60 45 62.4 45.5999 64.7 45.4999C67.1 45.5999 69.4 45 71.4 43.8C73.2 42.7 74.6 41 75.5 39.1C76.4 37.1 76.8 34.3 76.8 30.6V16.8H71.5V29.8H71.6Z" fill="#303847"/>
<path d="M22.7 32.3C22.2 31.6 21.6 31.1 20.9 30.6C20.1 30.1 19.3 29.7 18.4 29.4C18 29.3 17.4 29.1 16.5 28.9C15.6 28.7 14.7 28.5 13.7 28.2C12.8 28 11.9 27.8 11.1 27.6C10.3 27.4 9.89999 27.3 9.79999 27.3C8.89999 27.1 8.00001 26.6 7.20001 26C6.10001 24.9 5.90001 23.2 6.70001 22C7.00001 21.5 7.5 21.2 8 20.9C8.6 20.6 9.10001 20.4 9.70001 20.3C10.3 20.2 10.9 20.1 11.6 20.1C13.2 20 14.7 20.4 16.1 21.2C17.3 22.1 18.1 23.5 18.1 25H23.3C23.3 23.7 23 22.4 22.4 21.2C21.8 20.1 20.9 19.2 19.9 18.4C18.8 17.6 17.6 17.1 16.3 16.7C14.9 16.3 13.4 16.1 11.9 16.1C10.6 16.1 9.19999 16.3 7.89999 16.6C6.69999 16.9 5.49999 17.4 4.39999 18.1C3.39999 18.8 2.59999 19.6 1.89999 20.6C1.29999 21.7 0.9 23 1 24.2C1 24.9 1.09999 25.6 1.29999 26.3C1.49999 27 1.89999 27.7 2.39999 28.3C2.99999 29 3.69999 29.5 4.39999 30C5.39999 30.6 6.50001 31 7.60001 31.2C9.60001 31.7 11.4 32.0999 12.8 32.4999C14 32.7999 15.3 33.0999 16.5 33.4999C17.1 33.6999 17.7 34.1 18.2 34.6C18.8 35.2 19 36.1 19 36.9C19 37.4 18.9 37.9 18.7 38.4C18.5 38.9 18.1 39.4 17.6 39.7C17 40.1 16.3 40.5 15.6 40.7C14.7 41 13.7 41.1 12.7 41.1C11.7 41.1 10.7 41 9.79999 40.8C8.89999 40.6 8.09999 40.2 7.39999 39.8C6.69999 39.3 6.19999 38.6999 5.79999 37.9999C5.39999 37.1999 5.20001 36.2 5.20001 35.3H0C0 36.8 0.3 38.4 1 39.7C1.6 40.9 2.50001 42 3.70001 42.8C4.90001 43.6 6.20001 44.2 7.60001 44.6C9.20001 45 10.8 45.2 12.4 45.2C13.9 45.2 15.3 45 16.7 44.7C18 44.4 19.3 43.9 20.5 43.2C21.6 42.5 22.5 41.5999 23.2 40.4999C23.9 39.2999 24.3 37.8999 24.2 36.4999C24.2 35.7999 24.1 35 23.8 34.3C23.6 33.6 23.2 32.9 22.7 32.3Z" fill="#303847"/>
<path d="M110.1 19.2C111.1 18.2 112.2 17.3 113.5 16.6H102.9V9.39996H97.6V16.6H88.8V9.39996H83.5V16.6H77V21.5H83.6V44.7H88.9V21.5H97.7V44.7H103V21.5H108.4C108.8 20.7 109.4 19.9 110.1 19.2Z" fill="#303847"/>
<path d="M173.3 14.3H179.3V23.9C178.4 21.5 177.2 19.2 175.6 17.1L175.5 17L172.6 18.3V10.6H163.2V11L160.6 8.70001H160.5C157.1 9.90001 150.9 10.7 146.2 11.2H146L146.1 11.4C146.5 12.2 146.8 13 147 13.9V14H147.1C148.1 13.9 149.2 13.8 150.3 13.7L147.6 14.5L147.7 14.7C148.4 15.9 148.8 17.2 149.1 18.5H146V21.6H151.4C149.7 23.7 147.7 25.5 145.5 27L145.4 27.1L145.5 27.2C146.1 28.2 146.6 29.3 147 30.4L147.1 30.6L147.8 30.1V45.1H151V43.2H159.2V44.4H162.4V34.1L164.4 37.4L164.5 37.3C164.8 37.1 164.9 36.8 164.9 36.4C165.6 35.9 167.2 34.5999 169 32.9999V41.1C169 41.7 169 41.7 167.3 41.7C166.6 41.7 165.6 41.7 164.6 41.6H164.2L164.3 41.8C164.8 42.8 165.1 43.8999 165.3 44.9999V45.1H165.4C170.4 45.1 172.5 44.9 172.5 41.1V33.8L174.4 36.9L174.5 36.8C174.8 36.6 174.9 36.3 174.9 35.9C176.5 34.6 177.8 33.5 179.1 32.4V40.8C179.1 41.4 179.1 41.4 177.4 41.4C176.6 41.4 175.5 41.4 174.5 41.3H174.2L174.3 41.4999C174.8 42.4999 175.2 43.7 175.3 44.8V44.9H175.4C181.1 44.9 182.7 44.4 182.7 40.8V10.3H173V14.3H173.3ZM148.8 29.3C150.6 27.7 152.1 26 153.5 24.1V28.9H156.9V24.5C158.5 25.7 160.1 27.1 161.5 28.5L161.6 28.6L163.8 25.5L163.7 25.4C162.8 24.7 159.4 22.7 157.6 21.6H163.8V19.5C165 21.4 165.9 23.4 166.5 25.5V25.7L169.2 24.4V29C166.8 30.7 164.3 32.3999 162.6 33.4999V29.3H148.8ZM156.7 32.3H159.4V34.6H156.7V32.3ZM159.4 39.9999H156.7V37.4999H159.4V39.9999ZM153.6 39.9999H151.1V37.4999H153.6V39.9999ZM153.6 34.7H151.1V32.4H153.6V34.7ZM153.5 18.4H150.9L152.4 17.9V17.8C152.1 16.4 151.6 15 150.8 13.7V13.6C151.7 13.5 152.6 13.4 153.5 13.3V18.4ZM169.2 14.3V22.7C168.4 20.8 167.4 19 166.2 17.3L166.1 17.2L163.2 18.4H163.1H160.7C161.3 17.4 162 16 162.5 15C162.9 15 163.2 14.9 163.4 14.6L163.5 14.5L159.8 13.2V13.3C159.3 14.9 158.6 16.4 157.9 17.9L157.8 18.1H158C158.1 18.1 158.5 18.3 158.8 18.4H156.9V13C157.1 13 157.3 12.9 157.5 12.8C159.2 12.5 161 12.2 162.7 11.7C162.9 11.7 163.2 11.7 163.4 11.7V14.4L169.2 14.3ZM172.8 18.5C174.3 20.6 175.4 22.9 176.2 25.3V25.5L179.4 24V28.4C176.9 30.3 174.5 32 172.8 33.1V18.5Z" fill="#303847"/>
<path d="M226.6 41.8C221.1 37.7 219.3 33 218.2 27H224.6V10.4H206V24.8C206 30.6 205.5 37.1 202.2 41.9V31.2H189.7V44.7H193.3V42.9999H202.2C203.1 43.5999 204 44.3 204.8 45.1L204.9 45.2L205 45.1C208.1 41.2 209.8 35.1 210 27H214.2C215.3 34.2 217.4 40 223.8 45.2L223.9 45.3L224 45.1C224.6 43.9 225.5 42.7999 226.6 41.9999L226.7 41.9L226.6 41.8ZM220.5 23.3H210V14.2H220.5V23.3ZM198.6 39.8H193.3V34.4H198.6V39.8Z" fill="#303847"/>
<path d="M203.5 15.2H187.9V18.4H203.5V15.2Z" fill="#303847"/>
<path d="M202.1 10.1H190V13.2H202.1V10.1Z" fill="#303847"/>
<path d="M202.2 20.6H189.8V23.7H202.2V20.6Z" fill="#303847"/>
<path d="M202.2 25.8H189.8V28.9H202.2V25.8Z" fill="#303847"/>
</svg>
